REM DIRINDEX 1\2,1\3,1\4
REM DIRNAME folder01,folder02,folder03,folder04
TITLE ""
FILE "089 089_TOEFL_3900.mp3" MP3
  TRACK 01 AUDIO
    TITLE "2:cjc151_3869"
    INDEX 01 00:00:00
  TRACK 02 AUDIO
    TITLE "0:"
    INDEX 01 00:01:09
  TRACK 03 AUDIO
    TITLE "3:cjc151_3870"
    INDEX 01 00:02:63
  TRACK 04 AUDIO
    TITLE "0:"
    INDEX 01 00:06:22
  TRACK 05 AUDIO
    TITLE "2:cjc151_3871"
    INDEX 01 00:08:01
  TRACK 06 AUDIO
    TITLE "0:"
    INDEX 01 00:09:04
  TRACK 07 AUDIO
    TITLE "3:cjc151_3872"
    INDEX 01 00:10:59
  TRACK 08 AUDIO
    TITLE "0:"
    INDEX 01 00:14:11
  TRACK 09 AUDIO
    TITLE "2:cjc151_3873"
    INDEX 01 00:15:66
  TRACK 10 AUDIO
    TITLE "0:"
    INDEX 01 00:16:69
  TRACK 11 AUDIO
    TITLE "3:cjc151_3874"
    INDEX 01 00:18:48
  TRACK 12 AUDIO
    TITLE "0:"
    INDEX 01 00:22:62
  TRACK 13 AUDIO
    TITLE "2:cjc151_3875"
    INDEX 01 00:24:41
  TRACK 14 AUDIO
    TITLE "0:"
    INDEX 01 00:25:48
  TRACK 15 AUDIO
    TITLE "3:cjc151_3876"
    INDEX 01 00:27:28
  TRACK 16 AUDIO
    TITLE "0:"
    INDEX 01 00:30:28
  TRACK 17 AUDIO
    TITLE "2:cjc151_3877"
    INDEX 01 00:32:05
  TRACK 18 AUDIO
    TITLE "0:"
    INDEX 01 00:32:74
  TRACK 19 AUDIO
    TITLE "3:cjc151_3878"
    INDEX 01 00:34:53
  TRACK 20 AUDIO
    TITLE "0:"
    INDEX 01 00:38:37
  TRACK 21 AUDIO
    TITLE "2:cjc151_3879"
    INDEX 01 00:40:17
  TRACK 22 AUDIO
    TITLE "0:"
    INDEX 01 00:41:16
  TRACK 23 AUDIO
    TITLE "3:cjc151_3880"
    INDEX 01 00:42:74
  TRACK 24 AUDIO
    TITLE "0:"
    INDEX 01 00:47:28
  TRACK 25 AUDIO
    TITLE "2:cjc151_3881"
    INDEX 01 00:49:06
  TRACK 26 AUDIO
    TITLE "0:"
    INDEX 01 00:50:07
  TRACK 27 AUDIO
    TITLE "3:cjc151_3882"
    INDEX 01 00:51:58
  TRACK 28 AUDIO
    TITLE "0:"
    INDEX 01 00:55:48
  TRACK 29 AUDIO
    TITLE "2:cjc151_3883"
    INDEX 01 00:57:31
  TRACK 30 AUDIO
    TITLE "0:"
    INDEX 01 00:58:56
  TRACK 31 AUDIO
    TITLE "3:cjc151_3884"
    INDEX 01 01:00:33
  TRACK 32 AUDIO
    TITLE "0:"
    INDEX 01 01:04:52
  TRACK 33 AUDIO
    TITLE "2:cjc151_3885"
    INDEX 01 01:06:30
  TRACK 34 AUDIO
    TITLE "0:"
    INDEX 01 01:07:39
  TRACK 35 AUDIO
    TITLE "3:cjc151_3886"
    INDEX 01 01:09:16
  TRACK 36 AUDIO
    TITLE "0:"
    INDEX 01 01:12:42
  TRACK 37 AUDIO
    TITLE "2:cjc151_3887"
    INDEX 01 01:14:19
  TRACK 38 AUDIO
    TITLE "0:"
    INDEX 01 01:15:23
  TRACK 39 AUDIO
    TITLE "3:cjc151_3888"
    INDEX 01 01:17:04
  TRACK 40 AUDIO
    TITLE "0:"
    INDEX 01 01:20:38
  TRACK 41 AUDIO
    TITLE "2:cjc151_3889"
    INDEX 01 01:22:25
  TRACK 42 AUDIO
    TITLE "0:"
    INDEX 01 01:23:28
  TRACK 43 AUDIO
    TITLE "3:cjc151_3890"
    INDEX 01 01:25:08
  TRACK 44 AUDIO
    TITLE "0:"
    INDEX 01 01:28:59
  TRACK 45 AUDIO
    TITLE "2:cjc151_3891"
    INDEX 01 01:30:38
  TRACK 46 AUDIO
    TITLE "0:"
    INDEX 01 01:31:43
  TRACK 47 AUDIO
    TITLE "3:cjc151_3892"
    INDEX 01 01:33:23
  TRACK 48 AUDIO
    TITLE "0:"
    INDEX 01 01:36:56
  TRACK 49 AUDIO
    TITLE "2:cjc151_3893"
    INDEX 01 01:38:36
  TRACK 50 AUDIO
    TITLE "0:"
    INDEX 01 01:39:41
  TRACK 51 AUDIO
    TITLE "3:cjc151_3894"
    INDEX 01 01:41:10
  TRACK 52 AUDIO
    TITLE "0:"
    INDEX 01 01:44:17
  TRACK 53 AUDIO
    TITLE "2:cjc151_3895"
    INDEX 01 01:45:71
  TRACK 54 AUDIO
    TITLE "0:"
    INDEX 01 01:46:72
  TRACK 55 AUDIO
    TITLE "3:cjc151_3896"
    INDEX 01 01:48:48
  TRACK 56 AUDIO
    TITLE "0:"
    INDEX 01 01:52:16
  TRACK 57 AUDIO
    TITLE "2:cjc151_3897"
    INDEX 01 01:53:70
  TRACK 58 AUDIO
    TITLE "0:"
    INDEX 01 01:54:68
  TRACK 59 AUDIO
    TITLE "3:cjc151_3898"
    INDEX 01 01:56:47
  TRACK 60 AUDIO
    TITLE "0:"
    INDEX 01 02:00:04
  TRACK 61 AUDIO
    TITLE "2:cjc151_3899"
    INDEX 01 02:01:58
  TRACK 62 AUDIO
    TITLE "0:"
    INDEX 01 02:02:66
  TRACK 63 AUDIO
    TITLE "3:cjc151_3900"
    INDEX 01 02:04:43
  TRACK 64 AUDIO
    TITLE "0:"
    INDEX 01 02:08:07
  TRACK 65 AUDIO
    TITLE "2:cjc151_3901"
    INDEX 01 02:09:62
  TRACK 66 AUDIO
    TITLE "0:"
    INDEX 01 02:10:53
  TRACK 67 AUDIO
    TITLE "3:cjc151_3902"
    INDEX 01 02:12:52
  TRACK 68 AUDIO
    TITLE "0:"
    INDEX 01 02:15:60
  TRACK 69 AUDIO
    TITLE "2:cjc151_3903"
    INDEX 01 02:17:57
  TRACK 70 AUDIO
    TITLE "0:"
    INDEX 01 02:18:57
  TRACK 71 AUDIO
    TITLE "3:cjc151_3904"
    INDEX 01 02:20:36
  TRACK 72 AUDIO
    TITLE "0:"
    INDEX 01 02:24:24
  TRACK 73 AUDIO
    TITLE "2:cjc151_3905"
    INDEX 01 02:26:03
  TRACK 74 AUDIO
    TITLE "0:"
    INDEX 01 02:27:14
  TRACK 75 AUDIO
    TITLE "3:cjc151_3906"
    INDEX 01 02:28:67
  TRACK 76 AUDIO
    TITLE "0:"
    INDEX 01 02:32:25
  TRACK 77 AUDIO
    TITLE "2:cjc151_3907"
    INDEX 01 02:34:03
  TRACK 78 AUDIO
    TITLE "0:"
    INDEX 01 02:35:12
  TRACK 79 AUDIO
    TITLE "3:cjc151_3908"
    INDEX 01 02:36:64
  TRACK 80 AUDIO
    TITLE "0:"
    INDEX 01 02:40:17
  TRACK 81 AUDIO
    TITLE "2:cjc151_3909"
    INDEX 01 02:41:69
  TRACK 82 AUDIO
    TITLE "0:"
    INDEX 01 02:43:04
  TRACK 83 AUDIO
    TITLE "3:cjc151_3910"
    INDEX 01 02:44:58
  TRACK 84 AUDIO
    TITLE "0:"
    INDEX 01 02:48:15
  TRACK 85 AUDIO
    TITLE "2:cjc151_3911"
    INDEX 01 02:49:69
  TRACK 86 AUDIO
    TITLE "0:"
    INDEX 01 02:50:65
  TRACK 87 AUDIO
    TITLE "3:cjc151_3912"
    INDEX 01 02:52:40
  TRACK 88 AUDIO
    TITLE "0:"
    INDEX 01 02:56:22
